<svg xmlns="http://www.w3.org/2000/svg" x="0px" y="0px" width="25" height="25" viewBox="0 0 24 24" style="fill:#FFFFFF;">
    <path d="M 3.1210938 4.0234375 L 3.2695312 4.3886719 C 3.2695312 4.3886719 8.5740484 17.36245 10.267578 21.386719 L 10.525391 21.998047 L 12.779297 21.998047 L 14.755859 17.052734 L 19.996094 15.320312 L 20.005859 13.748047 L 17.720703 11.044922 L 20.996094 7.6445312 L 20.996094 5.1914062 L 3.875 2.0039062 L 3.1210938 3.9921875 z M 5.4179688 3.3222656 L 18.980469 5.8222656 L 15.029297 9.9238281 L 17.410156 12.744141 L 14.375 12.003906 L 8 5.7226562 L 7.7988281 5.921875 C 7.7988281 5.921875 11.473998 12.297204 13.023438 15.001953 L 11.638672 18.466797 C 9.7455758 13.926865 5.8058761 4.3059625 5.4179688 3.3574219 z"/>
</svg>
